<?xml version="1.0" encoding="utf-8"?>
<!-- Generator: Adobe Illustrator 23.0.2, SVG Export Plug-In . SVG Version: 6.00 Build 0)  -->
<svg version="1.1" id="Layer_1" xmlns="http://www.w3.org/2000/svg" xmlns:xlink="http://www.w3.org/1999/xlink" x="0px" y="0px"
	 viewBox="0 0 98.3 55" style="enable-background:new 0 0 98.3 55;" xml:space="preserve">
<style type="text/css">
	.st0{fill:#EA5B0C;}
</style>
<path class="st0" d="M98.3,14.5c-3.6-4-5.5-9.1-5.5-14.5h-2c0,5.9,2.2,11.6,6.1,16c-2.4,2.3-5.3,3.9-8.5,4.9
	c-1.1-3.8-3.2-7.3-6-10.2c-4.5-4.5-10.5-7-16.9-7c0,0,0,0,0,0c-1.7,0-3.4,0.2-5,0.5c-0.3-1.4-0.4-2.8-0.4-4.2h-2
	c0,1.6,0.2,3.2,0.5,4.7c-3.6,1.1-6.8,3-9.4,5.5c-2.7-2.6-5.9-4.5-9.5-5.5C40,3.1,40.2,1.6,40.2,0h-2c0,1.4-0.1,2.8-0.4,4.2
	c-1.6-0.3-3.3-0.5-5-0.5h0c-10.8,0-20,7.3-22.9,17.2c-3.1-1-6-2.6-8.5-4.9c4-4.4,6.1-10,6.1-16h-2c0,5.4-2,10.5-5.5,14.5v2.9
	c2.7,2.5,5.9,4.4,9.4,5.5c-0.3,1.5-0.5,3.1-0.5,4.7c0,1.6,0.2,3.2,0.5,4.7c-3.5,1.1-6.7,2.9-9.4,5.5v2.9c3.6,4,5.5,9.1,5.5,14.5h2
	c0-5.9-2.2-11.6-6.1-16c2.4-2.3,5.3-3.9,8.5-4.9c1.1,3.8,3.2,7.3,6,10.2c4.5,4.5,10.5,7,16.9,7h0c1.7,0,3.4-0.2,5-0.5
	c0.3,1.4,0.4,2.8,0.4,4.2h2c0-1.6-0.2-3.2-0.5-4.7c3.6-1.1,6.8-3,9.4-5.5c2.7,2.6,5.9,4.5,9.5,5.5c-0.3,1.5-0.5,3.1-0.5,4.7h2
	c0-1.4,0.1-2.8,0.4-4.2c1.6,0.3,3.3,0.5,5,0.5c0,0,0,0,0,0c10.8,0,20-7.3,22.9-17.2c3.1,1,6,2.6,8.5,4.9c-4,4.4-6.1,10-6.1,16h2
	c0-5.4,2-10.5,5.5-14.5v-2.9c-2.7-2.6-5.9-4.4-9.4-5.5c0.3-1.5,0.5-3.1,0.5-4.7c0-1.6-0.2-3.2-0.5-4.7c3.5-1.1,6.7-2.9,9.4-5.5V14.5
	z M65.5,5.7C65.5,5.7,65.5,5.7,65.5,5.7c5.8,0,11.3,2.3,15.5,6.4c2.6,2.6,4.5,5.8,5.5,9.3c-1.5,0.3-3,0.5-4.5,0.5c0,0,0,0,0,0
	c-5.8,0-11.3-2.3-15.4-6.4C63.9,12.8,62,9.6,61,6.1C62.5,5.8,64,5.7,65.5,5.7z M32.8,5.7C32.8,5.7,32.8,5.7,32.8,5.7
	c1.5,0,3,0.2,4.5,0.5c-1,3.5-2.9,6.7-5.5,9.3c-4.1,4.1-9.6,6.4-15.4,6.4h0c-1.5,0-3-0.2-4.5-0.5C14.5,12.3,22.8,5.7,32.8,5.7z
	 M32.8,49.3C32.8,49.3,32.8,49.3,32.8,49.3c-5.8,0-11.3-2.3-15.4-6.4c-2.6-2.6-4.5-5.8-5.5-9.3c1.5-0.3,3-0.5,4.5-0.5h0
	c9.9,0,18.3,6.6,21,15.7C35.8,49.2,34.3,49.3,32.8,49.3z M39.2,48.4c-2.9-9.9-12.1-17.2-22.9-17.2h0c-1.7,0-3.4,0.2-5,0.5
	c-0.3-1.4-0.4-2.8-0.4-4.2c0-1.4,0.1-2.8,0.4-4.2c1.6,0.3,3.3,0.5,5,0.5h0c6.4,0,12.4-2.5,16.9-7c2.9-2.9,5-6.4,6.1-10.2
	c3.2,1,6.1,2.7,8.5,5c-3.8,4.2-6.1,9.8-6.1,15.9c0,5.9,2.1,11.5,6.1,15.9C45.4,45.6,42.4,47.4,39.2,48.4z M43.7,27.5
	c0-5.5,2.1-10.6,5.5-14.4c3.5,4,5.5,9.1,5.5,14.4c0,5.5-2.1,10.6-5.5,14.4C45.6,37.9,43.7,32.9,43.7,27.5z M65.5,49.3
	C65.5,49.3,65.5,49.3,65.5,49.3c-1.5,0-3-0.2-4.5-0.5c2.7-9.1,11-15.7,21-15.7c0,0,0,0,0,0c1.5,0,3,0.2,4.5,0.5
	C83.8,42.7,75.5,49.3,65.5,49.3z M87,31.7c-1.6-0.3-3.3-0.5-5-0.5c0,0,0,0,0,0c-10.9,0-20,7.3-22.9,17.2c-3.2-1-6.1-2.7-8.5-5
	c3.8-4.2,6.1-9.8,6.1-15.9c0-5.9-2.1-11.5-6.1-15.9c2.4-2.3,5.3-4,8.5-5c1.1,3.8,3.2,7.3,6.1,10.2c4.5,4.5,10.5,7,16.9,7
	c0,0,0,0,0,0c1.7,0,3.4-0.2,5-0.5c0.3,1.4,0.4,2.8,0.4,4.2C87.4,28.9,87.2,30.3,87,31.7z"/>
</svg>
