<svg xmlns="http://www.w3.org/2000/svg" width="50" height="47.994" viewBox="0 0 50 47.994"><path d="M-6921.412-1478.77a17.387,17.387,0,0,0-13.27-1.748,17.736,17.736,0,0,0-3,1.116,17.347,17.347,0,0,0-7.495-1.712,17.508,17.508,0,0,0-17.488,17.49,17.476,17.476,0,0,0,7.589,14.4,17.366,17.366,0,0,0,2.266,7.354,17.5,17.5,0,0,0,15.176,8.741,17.376,17.376,0,0,0,8.714-2.341,17.369,17.369,0,0,0,8.149-10.619,17.646,17.646,0,0,0,.538-3.175,17.33,17.33,0,0,0,5.227-5.619A17.506,17.506,0,0,0-6921.412-1478.77Zm-16.216,2.39a14.874,14.874,0,0,1,6.99,9.784,17.473,17.473,0,0,0-13.989-.052,14.871,14.871,0,0,1,1.616-4.4A14.689,14.689,0,0,1-6937.628-1476.38Zm7.286,12.88a14.834,14.834,0,0,1-7.333,12.661,14.742,14.742,0,0,1-6.816-8.943,14.844,14.844,0,0,1-.454-3.758A14.835,14.835,0,0,1-6930.343-1463.5Zm-24.679,10.957a14.794,14.794,0,0,1-5-11.081,14.861,14.861,0,0,1,14.844-14.844,14.756,14.756,0,0,1,4.664.762,17.42,17.42,0,0,0-4.782,5.338,17.4,17.4,0,0,0-2.278,7.365A17.46,17.46,0,0,0-6955.022-1452.543Zm7.5-9.171a17.526,17.526,0,0,0,.474,2.616,17.357,17.357,0,0,0,6.533,9.556,14.792,14.792,0,0,1-4.667.762,14.731,14.731,0,0,1-7.311-1.941A14.872,14.872,0,0,1-6947.522-1461.714Zm24.192,14.945a14.737,14.737,0,0,1-6.917,9.013,14.86,14.86,0,0,1-20.275-5.433,14.753,14.753,0,0,1-1.674-4.425,17.389,17.389,0,0,0,7.016,1.48,17.364,17.364,0,0,0,7.531-1.729,17.359,17.359,0,0,0,7.465,1.726,17.593,17.593,0,0,0,6.993-1.475C-6923.248-1447.333-6923.256-1447.049-6923.33-1446.769Zm-11.523-2.772a17.479,17.479,0,0,0,7.05-12.15,14.805,14.805,0,0,1,2.991,3.658,14.7,14.7,0,0,1,1.928,7.328A14.869,14.869,0,0,1-6934.854-1449.542Zm17.554-6.66a14.813,14.813,0,0,1-2.99,3.657,17.435,17.435,0,0,0-2.234-6.811,17.329,17.329,0,0,0-5.239-5.642,17.454,17.454,0,0,0-7.033-12.665c.273-.089.52-.225.8-.3a14.759,14.759,0,0,1,11.264,1.483A14.861,14.861,0,0,1-6917.3-1456.2Z" transform="translate(6962.669 1481.12)" fill="#ea5b0c"/></svg>
