<svg xmlns="http://www.w3.org/2000/svg" width="157.221" height="43.657" viewBox="0 0 157.221 43.657">
  <path id="logo_footer_mobile" d="M1509.78-5856.871v-.135a1.283,1.283,0,0,1,1.443-1.367c.905,0,1.425.443,1.425,1.751a7.638,7.638,0,0,1-.116,1.348l1.81.115a11.617,11.617,0,0,0,.135-1.675c0-1.983-.982-3.368-3.292-3.368a3.335,3.335,0,0,0-3.619,3.33v.155c0,1.732,1.271,3.253,2.734,4.657,1.714,1.657,2.194,2.312,2.194,3.35v.25a1.366,1.366,0,0,1-1.5,1.522c-.866,0-1.539-.561-1.539-1.773a6.354,6.354,0,0,1,.153-1.424l-1.809-.116a10.343,10.343,0,0,0-.173,1.637c0,2.31,1.213,3.523,3.408,3.523a3.442,3.442,0,0,0,3.677-3.543v-.171c0-1.483-.6-2.715-3.08-5.2C1510.242-5855.389,1509.78-5855.966,1509.78-5856.871Zm3.176-11.889c0,1.1-.385,1.848-1.4,1.848-1.059,0-1.425-.79-1.425-1.713v-7.97c0-1.08.405-1.771,1.367-1.771,1.039,0,1.424.4,1.424,1.925a4.775,4.775,0,0,1-.135,1.348l1.849.134a9.982,9.982,0,0,0,.154-1.695c0-2.425-1.252-3.6-3.254-3.6-2.079,0-3.619,1.04-3.619,3.851v7.451c0,2.752,1.155,3.811,3.177,3.811a2.9,2.9,0,0,0,2.5-1.406h.077l.655,1.175h.847v-6.931h-2.214Zm-20.1-15.8a15.81,15.81,0,0,0-12.071-1.59,15.972,15.972,0,0,0-2.733,1.014,15.788,15.788,0,0,0-6.818-1.557,15.927,15.927,0,0,0-15.908,15.909,15.9,15.9,0,0,0,6.9,13.1A15.77,15.77,0,0,0,1464.3-5851a15.916,15.916,0,0,0,13.8,7.952,15.819,15.819,0,0,0,7.928-2.129,15.8,15.8,0,0,0,7.412-9.66,16.022,16.022,0,0,0,.49-2.887,15.765,15.765,0,0,0,4.754-5.112A15.925,15.925,0,0,0,1492.86-5884.562Zm-14.752,2.173a13.531,13.531,0,0,1,6.36,8.9,15.89,15.89,0,0,0-12.725-.047,13.471,13.471,0,0,1,1.47-4A13.371,13.371,0,0,1,1478.108-5882.389Zm6.627,11.716a13.5,13.5,0,0,1-6.67,11.517,13.4,13.4,0,0,1-6.2-8.136,13.472,13.472,0,0,1-.411-3.418A13.5,13.5,0,0,1,1484.735-5870.673Zm-22.449,9.966a13.457,13.457,0,0,1-4.55-10.079,13.518,13.518,0,0,1,13.5-13.5,13.443,13.443,0,0,1,4.242.693,15.854,15.854,0,0,0-4.35,4.856,15.836,15.836,0,0,0-2.072,6.7A15.883,15.883,0,0,0,1462.286-5860.707Zm6.823-8.343a16.026,16.026,0,0,0,.431,2.38,15.79,15.79,0,0,0,5.942,8.692,13.459,13.459,0,0,1-4.243.693,13.4,13.4,0,0,1-6.651-1.766A13.535,13.535,0,0,1,1469.109-5869.049Zm22.005,13.595a13.4,13.4,0,0,1-6.291,8.2,13.518,13.518,0,0,1-18.444-4.941,13.426,13.426,0,0,1-1.522-4.025,15.8,15.8,0,0,0,6.381,1.346,15.78,15.78,0,0,0,6.85-1.572,15.807,15.807,0,0,0,6.791,1.57,16.008,16.008,0,0,0,6.362-1.342C1491.189-5855.966,1491.182-5855.708,1491.114-5855.455Zm-10.481-2.522a15.894,15.894,0,0,0,6.411-11.051,13.424,13.424,0,0,1,2.722,3.328,13.375,13.375,0,0,1,1.755,6.665A13.529,13.529,0,0,1,1480.633-5857.977Zm15.967-6.057a13.411,13.411,0,0,1-2.72,3.326,15.859,15.859,0,0,0-2.03-6.2,15.766,15.766,0,0,0-4.765-5.131,15.884,15.884,0,0,0-6.4-11.521c.247-.082.473-.2.726-.273a13.426,13.426,0,0,1,10.245,1.349A13.519,13.519,0,0,1,1496.6-5864.034Zm26.671-3.206h-3.716v-4.832h3.177v-1.868h-3.177v-4.2h3.677V-5880h-5.891v14.63h5.929Zm43.351,2.1a3.4,3.4,0,0,0,3.657-3.754v-7.527c0-2.83-1.674-3.831-3.657-3.831s-3.716,1.04-3.716,3.831v7.527A3.424,3.424,0,0,0,1566.622-5865.142Zm-1.5-11.569a1.434,1.434,0,0,1,1.483-1.638,1.454,1.454,0,0,1,1.444,1.638v8.066c0,1.02-.539,1.656-1.424,1.656a1.488,1.488,0,0,1-1.5-1.675ZM1520.4-5860.2c-1.983,0-3.716,1.039-3.716,3.831v7.527a3.425,3.425,0,0,0,3.716,3.754,3.4,3.4,0,0,0,3.658-3.754v-7.527C1524.054-5859.2,1522.379-5860.2,1520.4-5860.2Zm1.425,11.608c0,1.02-.539,1.657-1.425,1.657a1.488,1.488,0,0,1-1.5-1.676v-8.047a1.432,1.432,0,0,1,1.482-1.637,1.453,1.453,0,0,1,1.444,1.637Zm59.112-11.358-2.581,14.631h2l.327-2.177h2.753l.365,2.177h2.233l-2.6-14.631Zm.019,10.587,1-7.6h.1l1.1,7.6Zm-1.722-18.222c0-.347-.02-.943-.02-1.367-.038-1.964-.423-3.022-1.905-3.369v-.1c1.6-.462,2.233-1.771,2.233-3.85,0-2.579-1.444-3.734-3.427-3.734h-3.639v14.63h2.215v-6.006h.808c1.155,0,1.386.751,1.443,2.581.02.9.039,1.616.077,2.675a2.249,2.249,0,0,0,.135.75h2.349A5.8,5.8,0,0,1,1579.23-5867.586Zm-3.581-5.564h-.962v-4.986h1c1.02,0,1.636.52,1.636,2.292C1577.324-5873.727,1576.631-5873.15,1575.649-5873.15Zm-1.341,19.513h-3.118v-6.314h-2.214v14.631h2.214v-6.449h3.118v6.449h2.214v-14.631h-2.214Zm18.708,1.963h-.077l-2.946-8.278h-2.137v14.631h1.983v-9.125h.077l3.215,9.125H1595v-14.631h-1.983Zm15.82,4.486v-4.832h3.177v-1.868h-3.177v-4.2h3.677v-1.868h-5.891v14.631h5.93v-1.867Zm-6.6-1.522c0,1.1-.385,1.849-1.405,1.849-1.059,0-1.425-.789-1.425-1.714v-7.969c0-1.08.4-1.771,1.367-1.771,1.039,0,1.424.4,1.424,1.926a4.785,4.785,0,0,1-.134,1.348l1.848.134a10.04,10.04,0,0,0,.154-1.694c0-2.426-1.251-3.6-3.253-3.6-2.079,0-3.62,1.039-3.62,3.85v7.449c0,2.753,1.156,3.813,3.177,3.813a2.906,2.906,0,0,0,2.5-1.406h.077l.655,1.175h.847v-6.93h-2.214ZM1566.906-5855a12.844,12.844,0,0,0,.115-1.81c0-2.5-1.366-3.388-3.291-3.388-1.944,0-3.543,1.078-3.543,3.965v7.3c0,2.888,1.56,3.87,3.523,3.87,1.906,0,3.311-.866,3.311-3.39a9.814,9.814,0,0,0-.134-1.828l-1.81.154a6.167,6.167,0,0,1,.115,1.33c0,1.4-.462,1.867-1.328,1.867-1.02,0-1.463-.637-1.463-1.6v-8.222a1.438,1.438,0,0,1,1.463-1.578c.885,0,1.309.424,1.309,1.887a7.16,7.16,0,0,1-.115,1.309Zm-25.307-4.948-2.579,14.631h2l.328-2.177h2.753l.365,2.177h2.233l-2.6-14.631Zm.019,10.587,1-7.6h.1l1.1,7.6Zm-3.275-24.9,2.387-5.736h-2.176l-3.1,7.893h-.057V-5880h-2.215v14.63h2.215v-3.638l1.559-2.792,1.559,6.43h2.31Zm-3.351,28.947h2.214v-14.631h-2.214Zm-2.068-9.683a12.936,12.936,0,0,0,.115-1.81c0-2.5-1.367-3.388-3.292-3.388-1.944,0-3.542,1.078-3.542,3.965v7.3c0,2.888,1.56,3.87,3.524,3.87,1.906,0,3.311-.866,3.311-3.39a9.828,9.828,0,0,0-.134-1.828l-1.81.154a6.158,6.158,0,0,1,.116,1.33c0,1.4-.462,1.867-1.329,1.867-1.02,0-1.463-.637-1.463-1.6v-8.222a1.439,1.439,0,0,1,1.463-1.578c.886,0,1.309.424,1.309,1.887a7.171,7.171,0,0,1-.115,1.309Zm17.813-4.948h-2.214v14.631h5.93v-1.867h-3.715Zm9.878-13.467h-3.177v-4.717h3.677V-5880h-5.891v14.63h2.214v-6.161h3.177Zm-29.425,6.179h-3.715v-4.832h3.176v-1.868h-3.176v-4.2h3.676V-5880h-5.891v14.63h5.929Zm18.068-1.617c0-1.482-.6-2.715-3.08-5.2-1.387-1.387-1.849-1.965-1.849-2.87v-.134a1.284,1.284,0,0,1,1.443-1.367c.905,0,1.425.444,1.425,1.751a7.667,7.667,0,0,1-.116,1.348l1.809.116a11.6,11.6,0,0,0,.135-1.675c0-1.984-.982-3.37-3.292-3.37a3.335,3.335,0,0,0-3.619,3.331v.155c0,1.732,1.271,3.254,2.734,4.658,1.713,1.657,2.194,2.31,2.194,3.35v.25a1.365,1.365,0,0,1-1.5,1.521c-.866,0-1.54-.56-1.54-1.771a6.323,6.323,0,0,1,.154-1.424l-1.809-.117a10.318,10.318,0,0,0-.174,1.637c0,2.309,1.213,3.522,3.408,3.522a3.441,3.441,0,0,0,3.677-3.542Z" transform="translate(-1455.33 5886.7)" fill="#ea5b0c"/>
</svg>
