<svg xmlns="http://www.w3.org/2000/svg" width="159.033" height="61.375" viewBox="0 0 159.033 61.375"><path d="M337.349,209.869a6.415,6.415,0,0,0,.059-.889,1.722,1.722,0,0,0-1.866-1.847,1.852,1.852,0,0,0-1.945,1.857v.068a3,3,0,0,0,1.212,2.2c.781.752,1.036,1.124,1.036,1.661v.108a.549.549,0,0,1-.518.616c-.332,0-.567-.177-.567-.792a3.964,3.964,0,0,1,.049-.714l-1.163-.078a4.74,4.74,0,0,0-.068.9,1.664,1.664,0,0,0,1.846,1.846,1.857,1.857,0,0,0,1.964-1.925v-.127a3.431,3.431,0,0,0-1.378-2.492c-.655-.586-.87-.938-.87-1.348v-.049a.488.488,0,0,1,.528-.557c.342,0,.6.146.6.782a4.368,4.368,0,0,1-.059.7Zm22.735,18.241V228a1.034,1.034,0,0,1,1.163-1.1c.729,0,1.147.357,1.147,1.411a6.141,6.141,0,0,1-.093,1.085l1.457.093a9.3,9.3,0,0,0,.108-1.349,2.418,2.418,0,0,0-2.651-2.713,2.686,2.686,0,0,0-2.915,2.682v.123c0,1.4,1.023,2.62,2.2,3.752,1.38,1.334,1.768,1.861,1.768,2.7v.2a1.1,1.1,0,0,1-1.21,1.224c-.7,0-1.24-.45-1.24-1.427a5.076,5.076,0,0,1,.124-1.147l-1.457-.093a8.269,8.269,0,0,0-.14,1.318,2.506,2.506,0,0,0,2.745,2.837,2.772,2.772,0,0,0,2.961-2.853v-.14c0-1.193-.481-2.186-2.48-4.186C360.455,229.3,360.084,228.838,360.084,228.11Zm45.45-6.663a2.738,2.738,0,0,0,2.946-3.023v-6.063c0-2.279-1.35-3.085-2.946-3.085a2.768,2.768,0,0,0-2.993,3.085v6.063A2.758,2.758,0,0,0,405.534,221.447Zm-1.21-9.318a1.154,1.154,0,0,1,1.194-1.317,1.17,1.17,0,0,1,1.162,1.317v6.5c0,.822-.434,1.334-1.147,1.334a1.2,1.2,0,0,1-1.21-1.35Zm-33.445,7.628h-2.992v-3.891h2.558v-1.5h-2.558v-3.38h2.961v-1.5H366.1v11.784h4.775Zm-75.611-6.605a.466.466,0,0,1-.44.518.457.457,0,0,1-.45-.518v-4.28c0-.352.147-.567.5-.567.391,0,.508.254.508.958a2.894,2.894,0,0,1-.049.527l1.182.078a4.487,4.487,0,0,0,.068-.82,1.733,1.733,0,0,0-1.847-1.915,1.775,1.775,0,0,0-1.925,2.013v3.664c0,1.271.655,1.993,1.749,1.993a1.571,1.571,0,0,0,1.29-.8h.02l.41.684h.469v-3.518h-1.485Zm67.372,5.381c0,.883-.31,1.488-1.132,1.488-.853,0-1.147-.635-1.147-1.379v-6.419c0-.868.325-1.426,1.1-1.426.838,0,1.147.325,1.147,1.551a3.85,3.85,0,0,1-.108,1.085l1.489.108a8.06,8.06,0,0,0,.123-1.364c0-1.954-1.008-2.9-2.62-2.9-1.675,0-2.915.837-2.915,3.1v6c0,2.217.931,3.069,2.558,3.069a2.339,2.339,0,0,0,2.015-1.132h.062l.527.946h.682V215.68h-1.783Zm-49.033,7.831h1.553v-3.059h1.417v-1.231h-1.417v-1.925h1.671v-1.211h-3.225Zm3.366,16.834a5.935,5.935,0,0,0,.059-.909,1.627,1.627,0,0,0-1.789-1.827,1.771,1.771,0,0,0-1.935,1.973v3.782a1.752,1.752,0,0,0,1.925,1.944,1.648,1.648,0,0,0,1.8-1.846,3.587,3.587,0,0,0-.1-.909l-1.153.078a3.015,3.015,0,0,1,.048.586c0,.723-.2.919-.478.919s-.478-.225-.478-.567v-4.241c0-.332.185-.548.469-.548.352,0,.488.234.488.919a2.926,2.926,0,0,1-.038.566Zm19.135-46.738a22.132,22.132,0,0,0-20.946-.624,22.119,22.119,0,0,0-22.076,38.242,22.106,22.106,0,0,0,16.359,20.028,22.272,22.272,0,0,0,5.766.764,22.143,22.143,0,0,0,22.048-20.778,22.13,22.13,0,0,0-1.15-37.631Zm-20.939,1.434a20.335,20.335,0,0,1,10.28,15.244,22.12,22.12,0,0,0-20.572.01,20.29,20.29,0,0,1,10.292-15.253ZM325.6,215.308c0,.11.017.216.017.327a20.316,20.316,0,0,1-10.445,17.737c-.1-.053-.2-.094-.291-.149a20.274,20.274,0,0,1-10.147-17.91c.1-.058.185-.126.283-.182a20.184,20.184,0,0,1,10.12-2.717A20.461,20.461,0,0,1,325.6,215.308ZM293.064,231.8a20.292,20.292,0,0,1,20.156-34.867,22.029,22.029,0,0,0-10.272,17.359,21.963,21.963,0,0,0-9.16,12.7A22.3,22.3,0,0,0,293.064,231.8Zm2.494-4.335a20.144,20.144,0,0,1,7.37-10.925,22.27,22.27,0,0,0,.725,4.828,21.96,21.96,0,0,0,9.579,12.969,20.187,20.187,0,0,1-18.357-1.311A20.388,20.388,0,0,1,295.557,227.463Zm29.771,22.844a20.318,20.318,0,0,1-30.313-15.086,21.959,21.959,0,0,0,20.134.22A21.985,21.985,0,0,0,325,237.771a22.294,22.294,0,0,0,10.3-2.536A20.269,20.269,0,0,1,325.329,250.307Zm-8.2-15.983a22.119,22.119,0,0,0,10.277-17.815,20.189,20.189,0,0,1,8.045,16.545A20.333,20.333,0,0,1,317.131,234.324Zm25.5-8.535a20.187,20.187,0,0,1-5.344,6.048,21.953,21.953,0,0,0-9.9-17.557,22.122,22.122,0,0,0-10.253-17.334,20.453,20.453,0,0,1,7.943-1.615,20.3,20.3,0,0,1,17.554,30.459Zm69.041,4.926h-2.512v-5.086h-1.783v11.784h1.783v-5.194h2.512v5.194h1.783V225.629h-1.783Zm-10.907-15.934H398.2v-3.8h2.961v-1.5H396.42v11.784H398.2V216.3h2.558Zm16.18,10.848-2.078,11.784h1.612l.264-1.752h2.217l.295,1.752h1.8l-2.093-11.784Zm.016,8.528.806-6.124h.078l.883,6.124Zm-11.186-4.543a10.45,10.45,0,0,0,.094-1.457c0-2.016-1.1-2.729-2.652-2.729-1.566,0-2.853.868-2.853,3.194V234.5c0,2.326,1.256,3.117,2.837,3.117a2.394,2.394,0,0,0,2.668-2.729,7.849,7.849,0,0,0-.109-1.473l-1.457.123a4.961,4.961,0,0,1,.094,1.07c0,1.132-.373,1.5-1.071,1.5-.821,0-1.178-.512-1.178-1.287V228.2a1.158,1.158,0,0,1,1.178-1.271c.713,0,1.055.34,1.055,1.519a5.711,5.711,0,0,1-.094,1.054Zm9.85-10.135c0-.279-.015-.759-.015-1.1-.031-1.582-.342-2.435-1.536-2.714v-.077c1.287-.373,1.8-1.427,1.8-3.1,0-2.077-1.163-3.008-2.76-3.008h-2.93v11.784h1.783v-4.838h.651c.931,0,1.116.6,1.163,2.077.016.729.031,1.3.061,2.156a1.84,1.84,0,0,0,.109.6h1.891A4.694,4.694,0,0,1,415.621,219.478ZM412.737,215h-.775v-4.015h.806c.821,0,1.317.418,1.317,1.845C414.086,214.532,413.528,215,412.737,215Zm13.872,17.3h-.062l-2.372-6.667h-1.721v11.784h1.6v-7.349h.061l2.59,7.349h1.5V225.629h-1.6Zm12.6,3.613v-3.892h2.558v-1.5h-2.558v-3.38h2.961v-1.5h-4.744v11.784H442.2v-1.5Zm-70.642-10.482a2.769,2.769,0,0,0-2.993,3.085v6.063a2.97,2.97,0,1,0,5.939,0v-6.063C371.515,226.234,370.166,225.427,368.569,225.427Zm1.147,9.349c0,.822-.435,1.334-1.147,1.334a1.2,1.2,0,0,1-1.21-1.349V228.28a1.154,1.154,0,0,1,1.194-1.318,1.171,1.171,0,0,1,1.163,1.318Zm64.249-.093c0,.883-.31,1.489-1.132,1.489-.853,0-1.148-.636-1.148-1.38v-6.419c0-.868.325-1.427,1.1-1.427.837,0,1.147.325,1.147,1.551a3.819,3.819,0,0,1-.108,1.085l1.489.108a8.036,8.036,0,0,0,.124-1.364c0-1.954-1.008-2.9-2.62-2.9-1.675,0-2.915.837-2.915,3.1v6c0,2.217.931,3.07,2.557,3.07a2.341,2.341,0,0,0,2.016-1.133h.062l.527.946h.682v-5.582h-1.783Zm-53.773,2.729h1.782V225.629h-1.782Zm-1.6-7.8a10.445,10.445,0,0,0,.094-1.457c0-2.016-1.1-2.729-2.652-2.729s-2.852.868-2.852,3.194V234.5c0,2.326,1.256,3.117,2.837,3.117a2.393,2.393,0,0,0,2.667-2.729,7.87,7.87,0,0,0-.108-1.473l-1.458.123a4.9,4.9,0,0,1,.094,1.07c0,1.132-.373,1.5-1.071,1.5-.821,0-1.177-.512-1.177-1.287V228.2a1.158,1.158,0,0,1,1.177-1.271c.714,0,1.055.34,1.055,1.519a5.863,5.863,0,0,1-.093,1.054Zm14.156-3.985h-1.783v11.784h4.775v-1.5h-2.993Zm-15.554-5.871H374.2v-3.891h2.559v-1.5H374.2v-3.38h2.962v-1.5h-4.745v11.784h4.776Zm14.421-1.3c0-1.194-.48-2.186-2.48-4.186-1.116-1.116-1.489-1.581-1.489-2.31v-.109a1.034,1.034,0,0,1,1.163-1.1c.729,0,1.147.357,1.147,1.411a6.054,6.054,0,0,1-.093,1.085l1.457.093a9.309,9.309,0,0,0,.109-1.349,2.418,2.418,0,0,0-2.652-2.713,2.686,2.686,0,0,0-2.914,2.682v.123c0,1.4,1.022,2.62,2.2,3.752,1.379,1.334,1.767,1.86,1.767,2.7v.2a1.1,1.1,0,0,1-1.209,1.225c-.7,0-1.24-.45-1.24-1.427a5.132,5.132,0,0,1,.123-1.148l-1.457-.093a8.249,8.249,0,0,0-.139,1.317,2.505,2.505,0,0,0,2.745,2.837,2.77,2.77,0,0,0,2.961-2.852Zm-8.728-4.357,1.923-4.621h-1.753l-2.5,6.357h-.047v-6.357h-1.783v11.784h1.783v-2.931l1.256-2.248,1.256,5.179h1.86Zm2.565,11.53-2.078,11.784h1.613l.264-1.752h2.216l.295,1.752h1.8l-2.094-11.784Zm.016,8.528.806-6.124h.078l.883,6.124Z" transform="translate(-283.17 -193.494)" fill="#f1f4d1"/></svg>