<svg xmlns="http://www.w3.org/2000/svg" width="181.83" height="70.173" viewBox="0 0 181.83 70.173"><path d="M345.115,3171.216a7.336,7.336,0,0,0,.067-1.016,1.969,1.969,0,0,0-2.133-2.112,2.117,2.117,0,0,0-2.224,2.123v.078a3.435,3.435,0,0,0,1.386,2.514c.893.86,1.184,1.285,1.184,1.9v.123a.628.628,0,0,1-.592.7c-.38,0-.648-.2-.648-.905a4.53,4.53,0,0,1,.056-.816l-1.33-.089a5.42,5.42,0,0,0-.078,1.028,1.9,1.9,0,0,0,2.111,2.111,2.123,2.123,0,0,0,2.246-2.2v-.145a3.922,3.922,0,0,0-1.575-2.849c-.749-.67-.995-1.072-.995-1.541v-.056a.558.558,0,0,1,.6-.637c.391,0,.681.167.681.894a4.991,4.991,0,0,1-.067.8Zm25.994,20.856v-.124a1.182,1.182,0,0,1,1.33-1.259c.833,0,1.311.408,1.311,1.613a7.02,7.02,0,0,1-.106,1.241l1.666.106a10.626,10.626,0,0,0,.124-1.542,2.764,2.764,0,0,0-3.031-3.1,3.072,3.072,0,0,0-3.333,3.067v.141c0,1.6,1.17,3,2.517,4.29,1.578,1.525,2.021,2.128,2.021,3.085v.231a1.257,1.257,0,0,1-1.383,1.4c-.8,0-1.418-.514-1.418-1.631a5.806,5.806,0,0,1,.142-1.312l-1.666-.106a9.454,9.454,0,0,0-.16,1.507c0,2.127,1.117,3.244,3.138,3.244a3.169,3.169,0,0,0,3.386-3.262v-.16c0-1.364-.55-2.5-2.836-4.786C371.534,3193.437,371.109,3192.905,371.109,3192.072Zm51.965-7.618a3.13,3.13,0,0,0,3.368-3.456v-6.932c0-2.606-1.543-3.527-3.368-3.527a3.165,3.165,0,0,0-3.422,3.527V3181A3.153,3.153,0,0,0,423.074,3184.454Zm-1.383-10.654a1.319,1.319,0,0,1,1.365-1.506,1.338,1.338,0,0,1,1.329,1.506v7.428c0,.94-.5,1.525-1.311,1.525a1.37,1.37,0,0,1-1.383-1.543Zm-38.239,8.722h-3.421v-4.449h2.925v-1.72h-2.925v-3.864h3.386v-1.72h-5.425v13.473h5.46ZM297,3174.97a.533.533,0,0,1-.5.592.523.523,0,0,1-.514-.592v-4.893c0-.4.168-.648.57-.648.447,0,.581.29.581,1.095a3.306,3.306,0,0,1-.056.6l1.352.089a5.133,5.133,0,0,0,.078-.938,1.982,1.982,0,0,0-2.112-2.19,2.03,2.03,0,0,0-2.2,2.3v4.189c0,1.453.749,2.279,2,2.279a1.8,1.8,0,0,0,1.475-.916h.023l.469.782h.536V3172.7H297Zm77.03,6.152c0,1.01-.354,1.7-1.294,1.7-.975,0-1.311-.726-1.311-1.577v-7.339c0-.993.372-1.631,1.258-1.631.958,0,1.312.372,1.312,1.773a4.4,4.4,0,0,1-.124,1.241l1.7.124a9.218,9.218,0,0,0,.141-1.56c0-2.234-1.152-3.315-3-3.315-1.915,0-3.333.957-3.333,3.545v6.861c0,2.535,1.064,3.509,2.925,3.509a2.674,2.674,0,0,0,2.3-1.294h.071l.6,1.082h.78v-6.382h-2.039Zm-56.062,8.954h1.776v-3.5h1.62v-1.408h-1.62v-2.2h1.911v-1.385h-3.687Zm3.848,19.247a6.785,6.785,0,0,0,.068-1.039,1.86,1.86,0,0,0-2.045-2.089,2.025,2.025,0,0,0-2.212,2.256v4.324a2,2,0,0,0,2.2,2.223,1.885,1.885,0,0,0,2.056-2.111,4.105,4.105,0,0,0-.112-1.039l-1.318.089a3.45,3.45,0,0,1,.055.67c0,.827-.223,1.051-.547,1.051s-.547-.257-.547-.648v-4.849c0-.38.212-.626.536-.626.4,0,.558.268.558,1.051a3.343,3.343,0,0,1-.044.647Zm21.878-53.438a25.305,25.305,0,0,0-23.949-.714,25.29,25.29,0,0,0-25.241,43.724,25.274,25.274,0,0,0,18.7,22.9,25.463,25.463,0,0,0,6.592.873,25.318,25.318,0,0,0,25.209-23.757,25.3,25.3,0,0,0-1.315-43.025Zm-23.94,1.64a23.25,23.25,0,0,1,11.754,17.429,25.291,25.291,0,0,0-23.521.011,23.2,23.2,0,0,1,11.767-17.44Zm11.929,19.91c0,.126.019.247.019.374a23.228,23.228,0,0,1-11.942,20.279c-.11-.061-.224-.107-.333-.17a23.179,23.179,0,0,1-11.6-20.477c.11-.066.211-.144.323-.208a23.078,23.078,0,0,1,11.571-3.107A23.394,23.394,0,0,1,331.686,3177.435Zm-37.2,18.853a23.2,23.2,0,0,1,23.045-39.865,25.186,25.186,0,0,0-11.744,19.847,25.111,25.111,0,0,0-10.473,14.52A25.5,25.5,0,0,0,294.482,3196.288Zm2.851-4.956a23.031,23.031,0,0,1,8.426-12.491,25.463,25.463,0,0,0,.829,5.52,25.108,25.108,0,0,0,10.952,14.828,23.079,23.079,0,0,1-20.988-1.5A23.311,23.311,0,0,1,297.333,3191.332Zm34.039,26.119a23.23,23.23,0,0,1-34.658-17.249,25.105,25.105,0,0,0,23.02.251A25.136,25.136,0,0,0,331,3203.118a25.489,25.489,0,0,0,11.771-2.9A23.175,23.175,0,0,1,331.372,3217.451ZM322,3199.177a25.289,25.289,0,0,0,11.75-20.369,23.082,23.082,0,0,1,9.2,18.917A23.248,23.248,0,0,1,322,3199.177Zm29.15-9.759a23.081,23.081,0,0,1-6.11,6.915,25.1,25.1,0,0,0-11.318-20.074A25.293,25.293,0,0,0,322,3156.44a23.385,23.385,0,0,1,9.081-1.847,23.212,23.212,0,0,1,20.07,34.825Zm78.938,5.632h-2.872v-5.815h-2.039v13.473h2.039v-5.938h2.872v5.938h2.038v-13.473h-2.038Zm-12.47-18.218h-2.925v-4.343h3.386v-1.72h-5.424v13.473h2.038v-5.673h2.925Zm18.5,12.4-2.376,13.473h1.843l.3-2h2.535l.337,2h2.056l-2.393-13.473Zm.018,9.75.921-7h.089l1.01,7Zm-12.789-5.194a11.947,11.947,0,0,0,.107-1.666c0-2.3-1.26-3.12-3.032-3.12-1.79,0-3.262.992-3.262,3.652v6.718c0,2.659,1.436,3.564,3.244,3.564,1.755,0,3.05-.8,3.05-3.12a8.977,8.977,0,0,0-.125-1.684l-1.666.141a5.672,5.672,0,0,1,.107,1.223c0,1.294-.426,1.72-1.224,1.72-.939,0-1.347-.585-1.347-1.471v-7.57a1.324,1.324,0,0,1,1.347-1.453c.815,0,1.206.389,1.206,1.737a6.525,6.525,0,0,1-.107,1.205Zm11.262-11.588c0-.319-.017-.868-.017-1.258-.036-1.809-.391-2.784-1.756-3.1v-.088c1.472-.426,2.057-1.631,2.057-3.546,0-2.375-1.33-3.439-3.156-3.439h-3.35v13.473h2.039v-5.531h.744c1.064,0,1.276.691,1.33,2.375.018.834.035,1.489.07,2.465a2.1,2.1,0,0,0,.125.691h2.162A5.367,5.367,0,0,1,434.607,3182.2Zm-3.3-5.123h-.886v-4.591h.922c.939,0,1.506.478,1.506,2.109C432.852,3176.548,432.214,3177.08,431.31,3177.08Zm15.86,19.778H447.1l-2.712-7.623h-1.968v13.473h1.827v-8.4h.07l2.961,8.4H449v-13.473H447.17Zm14.409,4.131v-4.45H464.5v-1.72h-2.925v-3.864h3.386v-1.72h-5.424v13.473H465v-1.719ZM380.811,3189a3.165,3.165,0,0,0-3.422,3.527v6.932a3.4,3.4,0,1,0,6.79,0v-6.932C384.179,3189.927,382.637,3189,380.811,3189Zm1.312,10.689c0,.94-.5,1.525-1.312,1.525a1.37,1.37,0,0,1-1.383-1.542v-7.41a1.319,1.319,0,0,1,1.365-1.507,1.339,1.339,0,0,1,1.33,1.507Zm73.459-.106c0,1.01-.354,1.7-1.294,1.7-.975,0-1.312-.727-1.312-1.578v-7.339c0-.993.372-1.631,1.259-1.631.957,0,1.311.372,1.311,1.773a4.368,4.368,0,0,1-.124,1.241l1.7.124a9.192,9.192,0,0,0,.142-1.56c0-2.234-1.153-3.315-2.995-3.315-1.915,0-3.333.957-3.333,3.545v6.861c0,2.535,1.064,3.51,2.924,3.51a2.676,2.676,0,0,0,2.3-1.295h.071l.6,1.082h.78v-6.382h-2.039Zm-61.481,3.12h2.038v-13.473H394.1Zm-1.832-8.917a11.947,11.947,0,0,0,.107-1.666c0-2.3-1.259-3.12-3.032-3.12-1.79,0-3.261.992-3.261,3.652v6.718c0,2.659,1.436,3.564,3.244,3.564,1.755,0,3.049-.8,3.049-3.12a9,9,0,0,0-.124-1.684l-1.667.141a5.606,5.606,0,0,1,.107,1.223c0,1.294-.426,1.72-1.224,1.72-.939,0-1.346-.585-1.346-1.471v-7.57a1.324,1.324,0,0,1,1.346-1.453c.816,0,1.206.389,1.206,1.737a6.7,6.7,0,0,1-.106,1.205Zm16.185-4.556h-2.038v13.473h5.46v-1.719h-3.422Zm-17.784-6.713h-3.422v-4.449h2.926v-1.72h-2.926v-3.864h3.387v-1.72H385.21v13.473h5.46Zm16.488-1.489c0-1.365-.549-2.5-2.836-4.786-1.276-1.276-1.7-1.808-1.7-2.641v-.125a1.182,1.182,0,0,1,1.33-1.258c.833,0,1.311.408,1.311,1.613a6.92,6.92,0,0,1-.106,1.241l1.666.106a10.644,10.644,0,0,0,.125-1.542,2.765,2.765,0,0,0-3.032-3.1,3.071,3.071,0,0,0-3.332,3.067v.141c0,1.595,1.169,3,2.517,4.29,1.577,1.525,2.02,2.127,2.02,3.085v.23a1.257,1.257,0,0,1-1.382,1.4c-.8,0-1.418-.515-1.418-1.631a5.868,5.868,0,0,1,.141-1.312l-1.666-.106a9.425,9.425,0,0,0-.159,1.506c0,2.128,1.116,3.244,3.138,3.244a3.168,3.168,0,0,0,3.385-3.261Zm-9.979-4.981,2.2-5.283h-2l-2.853,7.268h-.054v-7.268h-2.038v13.473h2.038v-3.351l1.436-2.57,1.436,5.921h2.127Zm2.933,13.183-2.376,13.473h1.844l.3-2h2.534l.337,2h2.057l-2.394-13.473Zm.018,9.75.921-7h.089l1.01,7Z" transform="translate(-283.17 -3152.494)" fill="#ea5b0c"/></svg>