<svg xmlns="http://www.w3.org/2000/svg" width="178.936" height="171.442" viewBox="0 0 178.936 171.442"><path d="M323.495,127.638H321.7l-2.55,6.5h-.048v-6.5h-1.822V139.68h1.822v-2.995l1.283-2.3,1.284,5.292h1.9l-2.044-7.32Zm123.581,0h-1.822V139.68h4.88v-1.537h-3.058Zm-146.439,9.254c0,.9-.317,1.52-1.156,1.52-.872,0-1.173-.649-1.173-1.41v-6.559c0-.888.333-1.458,1.125-1.458.856,0,1.173.333,1.173,1.584a3.919,3.919,0,0,1-.111,1.109l1.521.111a8.264,8.264,0,0,0,.126-1.394c0-2-1.029-2.963-2.677-2.963-1.711,0-2.979.856-2.979,3.169v6.132c0,2.265.951,3.137,2.614,3.137a2.39,2.39,0,0,0,2.06-1.157h.064l.539.967h.7v-5.7h-1.822Zm5.431-2.726h2.614v-1.537h-2.614v-3.454h3.026v-1.537h-4.848V139.68h4.88v-1.537h-3.058Zm6.519,0H315.2v-1.537h-2.614v-3.454h3.026v-1.537h-4.848V139.68h4.88v-1.537h-3.058Zm50.238,33.679h1.822v-5.071h2.614v-1.552h-2.614v-3.883h3.026V155.8h-4.848Zm20.009-8.968c0-2.124-1.189-3.074-2.82-3.074h-2.995v12.042h1.822V162.9h.666c.951,0,1.141.618,1.188,2.123.016.745.032,1.331.064,2.2a1.842,1.842,0,0,0,.111.618H382.8a4.828,4.828,0,0,1-.221-1.823c0-.285-.016-.776-.016-1.125-.032-1.616-.349-2.487-1.569-2.772v-.08C382.311,161.665,382.834,160.588,382.834,158.877Zm-3.2,2.566h-.793v-4.1h.824c.84,0,1.347.428,1.347,1.886C381.012,160.968,380.442,161.443,379.634,161.443Zm80.716-32.917a61.388,61.388,0,0,0-75.184-43.408,61.9,61.9,0,0,0-12.212,4.712A61.356,61.356,0,0,0,311.7,195.993a61.305,61.305,0,0,0,45.4,56.331,61.722,61.722,0,0,0,15.987,2.118,61.467,61.467,0,0,0,59.2-45.525,61.912,61.912,0,0,0,2.024-12.884,61.439,61.439,0,0,0,26.044-67.507ZM372.964,92.06a59.486,59.486,0,0,1,31.191,48.072,61.655,61.655,0,0,0-15.28-6.4,60.984,60.984,0,0,0-46.582,6.132c-.164.1-.32.2-.483.3a59.383,59.383,0,0,1,31.154-48.1ZM404.277,142.5c.021.637.049,1.272.049,1.913a59.455,59.455,0,0,1-31.336,52.34c-.547-.294-1.1-.579-1.639-.892a59.455,59.455,0,0,1-29.66-53.308c.528-.327,1.05-.661,1.592-.974a59.556,59.556,0,0,1,60.994.921ZM311.63,193.592a59.39,59.39,0,0,1,59.2-102.628,61.521,61.521,0,0,0-31.1,50.473A61.44,61.44,0,0,0,311.63,193.592Zm28.031-49.723a61.657,61.657,0,0,0,2.1,16.433,60.986,60.986,0,0,0,28.6,37.275c.165.1.336.175.5.268a59.261,59.261,0,0,1-57.24-2.968A59.486,59.486,0,0,1,339.661,143.869ZM402.69,244.476a59.388,59.388,0,0,1-88.949-47.212,61.183,61.183,0,0,0,59.245,1.717,60.894,60.894,0,0,0,27.969,6.846,61.892,61.892,0,0,0,31.261-8.513A59.385,59.385,0,0,1,402.69,244.476ZM432.338,194.9a59.485,59.485,0,0,1-57.234,2.935,61.415,61.415,0,0,0,31.2-53.421c0-.2-.013-.4-.015-.6A59.393,59.393,0,0,1,432.338,194.9ZM452.5,174.117a59.044,59.044,0,0,1-18.113,19.459A61.515,61.515,0,0,0,406.23,141.4a61.443,61.443,0,0,0-31.152-50.427,60.059,60.059,0,0,1,26.073-6A59.428,59.428,0,0,1,452.5,174.117ZM372.2,155.6a2.829,2.829,0,0,0-3.058,3.153v6.2a3.035,3.035,0,1,0,6.068,0v-6.2C375.214,156.421,373.836,155.6,372.2,155.6Zm1.172,9.554c0,.84-.443,1.362-1.172,1.362a1.223,1.223,0,0,1-1.236-1.378v-6.623a1.179,1.179,0,0,1,1.22-1.347,1.2,1.2,0,0,1,1.188,1.347Zm17.928,58.79h2.614V222.4H391.3V218.95h3.026v-1.536h-4.848v12.041h4.879v-1.537H391.3Zm-13.019.285h-.064l-2.424-6.812h-1.759v12.041h1.632v-7.51h.064l2.646,7.51h1.536V217.414h-1.631Zm35.084-94.053v-.111a1.056,1.056,0,0,1,1.187-1.125c.745,0,1.173.365,1.173,1.442a6.288,6.288,0,0,1-.1,1.109l1.489.1a9.456,9.456,0,0,0,.111-1.378,2.471,2.471,0,0,0-2.709-2.774,2.745,2.745,0,0,0-2.979,2.741v.127c0,1.426,1.046,2.677,2.25,3.834,1.41,1.362,1.806,1.9,1.806,2.758v.205a1.123,1.123,0,0,1-1.235,1.252c-.714,0-1.268-.459-1.268-1.457a5.179,5.179,0,0,1,.127-1.174l-1.489-.094a8.38,8.38,0,0,0-.143,1.346,2.561,2.561,0,0,0,2.8,2.9,2.832,2.832,0,0,0,3.026-2.915v-.143c0-1.22-.491-2.234-2.534-4.278C413.748,131.393,413.369,130.918,413.369,130.173Zm-27.5,96.494c0,.9-.317,1.52-1.157,1.52-.871,0-1.172-.649-1.172-1.409v-6.56c0-.887.333-1.458,1.125-1.458.855,0,1.172.333,1.172,1.584a3.931,3.931,0,0,1-.111,1.11l1.521.11a8.153,8.153,0,0,0,.127-1.394c0-2-1.03-2.963-2.678-2.963-1.711,0-2.978.856-2.978,3.169v6.132c0,2.265.951,3.137,2.614,3.137a2.388,2.388,0,0,0,2.06-1.157h.063l.539.967h.7v-5.7h-1.822Zm-55.359-89.855c0-1.22-.491-2.234-2.535-4.278-1.14-1.141-1.521-1.616-1.521-2.361v-.111a1.057,1.057,0,0,1,1.188-1.125c.745,0,1.173.365,1.173,1.442a6.288,6.288,0,0,1-.1,1.109l1.489.1a9.46,9.46,0,0,0,.111-1.378,2.471,2.471,0,0,0-2.709-2.774,2.745,2.745,0,0,0-2.979,2.741v.127c0,1.426,1.046,2.677,2.25,3.834,1.41,1.362,1.806,1.9,1.806,2.758v.205a1.123,1.123,0,0,1-1.235,1.252c-.714,0-1.268-.459-1.268-1.457a5.179,5.179,0,0,1,.127-1.174l-1.49-.094a8.489,8.489,0,0,0-.142,1.346,2.561,2.561,0,0,0,2.8,2.9,2.832,2.832,0,0,0,3.026-2.915Zm101.9-5.1a10.6,10.6,0,0,0,.1-1.489c0-2.06-1.125-2.789-2.709-2.789-1.6,0-2.915.887-2.915,3.264V136.7c0,2.377,1.283,3.184,2.9,3.184,1.569,0,2.725-.713,2.725-2.788a8,8,0,0,0-.111-1.505l-1.489.126a5.12,5.12,0,0,1,.1,1.094c0,1.156-.38,1.537-1.093,1.537-.84,0-1.2-.523-1.2-1.316v-6.764a1.185,1.185,0,0,1,1.2-1.3c.729,0,1.077.349,1.077,1.553a5.862,5.862,0,0,1-.1,1.077Zm-10.31-4.278a2.829,2.829,0,0,0-3.058,3.153v6.195a3.035,3.035,0,1,0,6.068,0v-6.195C425.116,128.256,423.738,127.432,422.106,127.432Zm1.172,9.554c0,.84-.443,1.363-1.172,1.363a1.224,1.224,0,0,1-1.236-1.379v-6.623A1.178,1.178,0,0,1,422.09,129a1.2,1.2,0,0,1,1.188,1.346ZM368.34,217.414l-2.123,12.041h1.647l.27-1.79H370.4l.3,1.79h1.838L370.4,217.414Zm.016,8.714.824-6.259h.079l.9,6.259Zm71.2-98.49-2.123,12.042h1.647l.27-1.79h2.266l.3,1.79h1.839l-2.139-12.042Zm.016,8.715.824-6.259h.079l.9,6.259ZM356.8,221.485a10.754,10.754,0,0,0,.1-1.489c0-2.06-1.125-2.789-2.709-2.789-1.6,0-2.916.887-2.916,3.264v6.005c0,2.377,1.284,3.184,2.9,3.184,1.569,0,2.725-.712,2.725-2.788a8,8,0,0,0-.111-1.5l-1.489.126a5.118,5.118,0,0,1,.1,1.094c0,1.156-.38,1.537-1.094,1.537-.839,0-1.2-.523-1.2-1.315v-6.765a1.184,1.184,0,0,1,1.2-1.3c.73,0,1.078.349,1.078,1.553a5.951,5.951,0,0,1-.1,1.077Zm6.091,1.126h-2.566v-5.2H358.5v12.041h1.822v-5.308h2.566v5.308h1.822V217.414h-1.822Zm71.231-82.931h1.822V127.638h-1.822Z" transform="translate(-283.532 -83)" fill="#f1f4d1"/></svg>