<svg xmlns="http://www.w3.org/2000/svg" width="114.336" height="31.748" viewBox="0 0 114.336 31.748"><path d="M1494.928-5865.008v-.1a.934.934,0,0,1,1.05-.994c.658,0,1.036.322,1.036,1.273a5.564,5.564,0,0,1-.084.98l1.316.083a8.449,8.449,0,0,0,.1-1.218,2.183,2.183,0,0,0-2.394-2.45,2.426,2.426,0,0,0-2.632,2.422v.112c0,1.26.924,2.366,1.988,3.388,1.246,1.2,1.6,1.68,1.6,2.436v.183a.993.993,0,0,1-1.092,1.106c-.63,0-1.12-.407-1.12-1.289a4.612,4.612,0,0,1,.111-1.035l-1.316-.084a7.514,7.514,0,0,0-.126,1.19,2.263,2.263,0,0,0,2.478,2.563,2.5,2.5,0,0,0,2.674-2.577v-.125c0-1.079-.434-1.974-2.24-3.78C1495.264-5863.93,1494.928-5864.35,1494.928-5865.008Zm2.31-8.646c0,.8-.28,1.344-1.022,1.344-.77,0-1.036-.574-1.036-1.246v-5.8c0-.785.294-1.288.994-1.288.756,0,1.036.294,1.036,1.4a3.466,3.466,0,0,1-.1.98l1.344.1a7.242,7.242,0,0,0,.112-1.232c0-1.764-.91-2.618-2.366-2.618-1.512,0-2.632.756-2.632,2.8v5.418c0,2,.84,2.772,2.31,2.772a2.112,2.112,0,0,0,1.82-1.022h.056l.476.854h.616v-5.04h-1.61Zm-14.615-11.492a11.5,11.5,0,0,0-8.778-1.156,11.606,11.606,0,0,0-1.988.737,11.485,11.485,0,0,0-4.958-1.132,11.582,11.582,0,0,0-11.569,11.569,11.561,11.561,0,0,0,5.021,9.528,11.472,11.472,0,0,0,1.5,4.865,11.574,11.574,0,0,0,10.038,5.782,11.5,11.5,0,0,0,5.766-1.548,11.492,11.492,0,0,0,5.39-7.025,11.658,11.658,0,0,0,.356-2.1,11.465,11.465,0,0,0,3.458-3.717A11.581,11.581,0,0,0,1482.623-5885.146Zm-10.728,1.58a9.842,9.842,0,0,1,4.625,6.473,11.557,11.557,0,0,0-9.254-.034,9.8,9.8,0,0,1,1.069-2.909A9.728,9.728,0,0,1,1471.895-5883.565Zm4.82,8.521a9.815,9.815,0,0,1-4.85,8.375,9.748,9.748,0,0,1-4.51-5.917,9.8,9.8,0,0,1-.3-2.486A9.814,9.814,0,0,1,1476.714-5875.045Zm-16.326,7.248a9.786,9.786,0,0,1-3.309-7.33,9.831,9.831,0,0,1,9.819-9.819,9.756,9.756,0,0,1,3.085.5,11.533,11.533,0,0,0-3.164,3.531,11.517,11.517,0,0,0-1.507,4.872A11.55,11.55,0,0,0,1460.389-5867.8Zm4.962-6.067a11.674,11.674,0,0,0,.314,1.731,11.478,11.478,0,0,0,4.321,6.321,9.769,9.769,0,0,1-3.086.5,9.747,9.747,0,0,1-4.837-1.284A9.841,9.841,0,0,1,1465.35-5873.864Zm16,9.886a9.748,9.748,0,0,1-4.575,5.962,9.831,9.831,0,0,1-13.413-3.593,9.778,9.778,0,0,1-1.107-2.928,11.5,11.5,0,0,0,4.641.979,11.481,11.481,0,0,0,4.982-1.144,11.491,11.491,0,0,0,4.938,1.142,11.638,11.638,0,0,0,4.627-.976C1481.408-5864.35,1481.4-5864.162,1481.353-5863.978Zm-7.622-1.834a11.56,11.56,0,0,0,4.662-8.037,9.779,9.779,0,0,1,1.979,2.42,9.728,9.728,0,0,1,1.276,4.848A9.838,9.838,0,0,1,1473.731-5865.812Zm11.611-4.405a9.758,9.758,0,0,1-1.978,2.419,11.533,11.533,0,0,0-1.477-4.506,11.479,11.479,0,0,0-3.466-3.731,11.55,11.55,0,0,0-4.653-8.378c.18-.06.344-.149.528-.2a9.761,9.761,0,0,1,7.451.98A9.831,9.831,0,0,1,1485.343-5870.217Zm19.4-2.331h-2.7v-3.514h2.31v-1.358h-2.31v-3.052h2.674v-1.358h-4.284v10.64h4.312Zm31.526,1.526a2.473,2.473,0,0,0,2.659-2.73v-5.474a2.457,2.457,0,0,0-2.659-2.786,2.5,2.5,0,0,0-2.7,2.786v5.474A2.491,2.491,0,0,0,1536.265-5871.022Zm-1.093-8.414a1.042,1.042,0,0,1,1.078-1.191,1.057,1.057,0,0,1,1.05,1.191v5.866c0,.742-.392,1.2-1.036,1.2a1.082,1.082,0,0,1-1.093-1.218Zm-32.524,12.006a2.5,2.5,0,0,0-2.7,2.786v5.474a2.491,2.491,0,0,0,2.7,2.73,2.473,2.473,0,0,0,2.66-2.73v-5.474A2.457,2.457,0,0,0,1502.649-5867.43Zm1.036,8.442c0,.741-.392,1.2-1.036,1.2a1.082,1.082,0,0,1-1.092-1.219v-5.852a1.042,1.042,0,0,1,1.078-1.19,1.057,1.057,0,0,1,1.05,1.19Zm42.988-8.261-1.877,10.64h1.457l.238-1.583h2l.266,1.583h1.624l-1.89-10.64Zm.014,7.7.728-5.53h.07l.8,5.53Zm-1.252-13.251c0-.252-.015-.686-.015-.994-.028-1.428-.308-2.2-1.386-2.45v-.07c1.162-.336,1.624-1.288,1.624-2.8,0-1.876-1.05-2.716-2.492-2.716h-2.646v10.64h1.61v-4.368h.588c.84,0,1.008.546,1.05,1.876.014.658.028,1.176.056,1.946a1.641,1.641,0,0,0,.1.546h1.708A4.226,4.226,0,0,1,1545.434-5872.8Zm-2.6-4.046h-.7v-3.626h.728c.742,0,1.19.378,1.19,1.667C1544.048-5877.266,1543.544-5876.846,1542.83-5876.846Zm-.975,14.19h-2.268v-4.592h-1.61v10.64h1.61v-4.69h2.268v4.69h1.61v-10.64h-1.61Zm13.605,1.428h-.056l-2.142-6.02h-1.554v10.64h1.442v-6.636h.056l2.338,6.636h1.358v-10.64h-1.442Zm11.5,3.262v-3.514h2.31v-1.358h-2.31v-3.052h2.674v-1.358h-4.284v10.64h4.312v-1.358Zm-4.8-1.106c0,.8-.28,1.345-1.022,1.345-.77,0-1.036-.574-1.036-1.246v-5.8c0-.784.294-1.288.995-1.288.756,0,1.035.294,1.035,1.4a3.47,3.47,0,0,1-.1.979l1.344.1a7.3,7.3,0,0,0,.112-1.232c0-1.765-.91-2.618-2.366-2.618-1.512,0-2.632.756-2.632,2.8v5.418c0,2,.84,2.772,2.31,2.772a2.113,2.113,0,0,0,1.82-1.022h.056l.476.854h.616v-5.04h-1.61Zm-25.693-4.578a9.337,9.337,0,0,0,.084-1.316,2.152,2.152,0,0,0-2.394-2.464c-1.414,0-2.577.784-2.577,2.884v5.307c0,2.1,1.134,2.814,2.562,2.814a2.161,2.161,0,0,0,2.408-2.464,7.136,7.136,0,0,0-.1-1.33l-1.316.112a4.48,4.48,0,0,1,.084.966c0,1.021-.336,1.358-.966,1.358-.742,0-1.064-.463-1.064-1.162v-5.979a1.046,1.046,0,0,1,1.064-1.147c.644,0,.952.308.952,1.372a5.217,5.217,0,0,1-.084.952Zm-18.4-3.6-1.876,10.64h1.456l.238-1.583h2l.266,1.583h1.624l-1.89-10.64Zm.014,7.7.728-5.53h.07l.8,5.53Zm-2.382-18.11,1.736-4.172h-1.583l-2.254,5.74h-.042v-5.74h-1.61v10.64h1.61v-2.646l1.134-2.03,1.134,4.676h1.68Zm-2.437,21.05h1.61v-10.64h-1.61Zm-1.5-7.042a9.409,9.409,0,0,0,.084-1.316,2.152,2.152,0,0,0-2.394-2.464c-1.414,0-2.576.784-2.576,2.884v5.307c0,2.1,1.134,2.814,2.562,2.814a2.161,2.161,0,0,0,2.408-2.464,7.139,7.139,0,0,0-.1-1.33l-1.316.112a4.471,4.471,0,0,1,.084.966c0,1.021-.336,1.358-.966,1.358-.742,0-1.064-.463-1.064-1.162v-5.979a1.046,1.046,0,0,1,1.064-1.147c.644,0,.952.308.952,1.372a5.206,5.206,0,0,1-.084.952Zm12.954-3.6h-1.61v10.64h4.312v-1.358h-2.7Zm7.184-9.794h-2.31v-3.43h2.674v-1.358h-4.284v10.64h1.61v-4.48h2.31Zm-21.4,4.494h-2.7v-3.514h2.31v-1.358h-2.31v-3.052h2.673v-1.358h-4.284v10.64h4.312Zm13.139-1.176c0-1.078-.434-1.975-2.24-3.78-1.009-1.008-1.344-1.429-1.344-2.087v-.1a.934.934,0,0,1,1.05-.994c.658,0,1.036.323,1.036,1.273a5.571,5.571,0,0,1-.084.98l1.316.084a8.448,8.448,0,0,0,.1-1.218,2.184,2.184,0,0,0-2.394-2.45,2.426,2.426,0,0,0-2.632,2.422v.112c0,1.26.924,2.366,1.988,3.388,1.246,1.2,1.6,1.68,1.6,2.436v.182a.993.993,0,0,1-1.092,1.106c-.63,0-1.12-.407-1.12-1.288a4.592,4.592,0,0,1,.112-1.036l-1.316-.084a7.508,7.508,0,0,0-.126,1.19,2.263,2.263,0,0,0,2.478,2.562,2.5,2.5,0,0,0,2.674-2.576Z" transform="translate(-1455.33 5886.7)" fill="#ea5b0c"/></svg>