<svg xmlns="http://www.w3.org/2000/svg" width="40" height="32.508" viewBox="0 0 40 32.508"><path d="M90,72.581a16.411,16.411,0,0,1-4.713,1.292,8.233,8.233,0,0,0,3.608-4.54,16.423,16.423,0,0,1-5.211,1.991A8.214,8.214,0,0,0,69.7,78.81a23.3,23.3,0,0,1-16.915-8.574,8.215,8.215,0,0,0,2.54,10.956,8.174,8.174,0,0,1-3.717-1.026c0,.034,0,.069,0,.1a8.212,8.212,0,0,0,6.583,8.047,8.226,8.226,0,0,1-3.706.141,8.215,8.215,0,0,0,7.666,5.7,16.465,16.465,0,0,1-10.192,3.513A16.646,16.646,0,0,1,50,97.553a23.227,23.227,0,0,0,12.58,3.687c15.095,0,23.349-12.505,23.349-23.349q0-.534-.024-1.062A16.674,16.674,0,0,0,90,72.581Z" transform="translate(-50 -68.733)" fill="#ea5b0c"/></svg>