<?xml version="1.0" standalone="no"?>
<!DOCTYPE svg PUBLIC "-//W3C//DTD SVG 20010904//EN"
 "http://www.w3.org/TR/2001/REC-SVG-20010904/DTD/svg10.dtd">
<svg version="1.0" xmlns="http://www.w3.org/2000/svg"
 width="1024.000000pt" height="1024.000000pt" viewBox="0 0 1024.000000 1024.000000"
 preserveAspectRatio="xMidYMid meet">
<metadata>
Created by potrace 1.11, written by Peter Selinger 2001-2013
</metadata>
<g transform="translate(0.000000,1024.000000) scale(0.100000,-0.100000)"
fill="#000000" stroke="none">
<path d="M0 5120 l0 -5120 5120 0 5120 0 0 5120 0 5120 -5120 0 -5120 0 0
-5120z m4130 3560 c318 -24 595 -91 878 -210 l113 -48 72 33 c182 83 427 157
650 195 959 163 1946 -216 2558 -982 303 -379 493 -828 571 -1343 20 -138 17
-590 -5 -730 -93 -581 -326 -1062 -713 -1474 -88 -94 -255 -240 -361 -316
l-69 -50 -22 -161 c-83 -596 -344 -1126 -762 -1544 -435 -436 -986 -702 -1615
-781 -163 -21 -503 -16 -675 10 -499 75 -957 273 -1335 578 -536 432 -896
1078 -975 1748 -6 55 -13 109 -16 121 -2 11 -41 48 -92 86 -507 379 -880 951
-1016 1559 -52 234 -61 316 -61 604 0 301 11 402 70 645 94 381 277 750 526
1060 546 680 1422 1065 2279 1000z"/>
<path d="M3750 8273 c-113 -11 -262 -39 -380 -69 -801 -208 -1442 -853 -1646
-1660 -62 -246 -85 -503 -65 -739 46 -548 267 -1033 648 -1426 119 -122 132
-129 133 -67 0 49 50 286 86 411 164 562 511 1060 989 1416 l70 52 16 132 c63
494 257 954 572 1351 98 123 291 317 410 410 48 38 87 72 87 76 0 20 -312 91
-482 109 -90 10 -357 13 -438 4z"/>
<path d="M6080 8274 c-110 -13 -255 -38 -325 -55 -87 -21 -185 -58 -184 -68 0
-3 41 -37 90 -76 128 -99 348 -328 458 -475 294 -394 486 -879 527 -1332 l6
-75 107 -80 c558 -424 916 -1020 1034 -1723 l22 -129 58 50 c147 130 351 402
460 616 173 338 251 664 251 1048 0 372 -74 691 -235 1021 -117 238 -260 434
-461 630 -279 274 -600 460 -978 569 -201 58 -338 77 -580 80 -118 2 -231 1
-250 -1z"/>
<path d="M5029 7897 c-425 -279 -742 -671 -894 -1107 -40 -116 -98 -330 -91
-337 3 -3 51 13 108 35 603 235 1299 236 1920 3 73 -27 134 -48 136 -46 2 2
-6 43 -18 92 -115 459 -386 891 -750 1197 -82 69 -208 160 -281 204 l-35 21
-95 -62z"/>
<path d="M4860 6249 c-258 -29 -564 -122 -792 -241 l-78 -40 0 -62 c0 -194 45
-462 111 -659 45 -135 145 -352 216 -467 125 -203 337 -446 508 -583 96 -76
276 -197 293 -197 20 0 188 113 287 193 113 92 309 295 393 408 263 356 411
743 452 1184 18 192 32 165 -131 245 -230 112 -506 192 -761 219 -112 13 -388
12 -498 0z"/>
<path d="M3472 5566 c-390 -403 -614 -915 -648 -1481 l-7 -110 149 -72 c322
-155 631 -226 984 -226 175 0 306 13 458 44 87 17 261 64 269 72 1 2 -34 32
-79 67 -113 87 -302 273 -405 398 -245 297 -433 667 -529 1041 -19 73 -42 189
-52 257 -9 68 -20 124 -23 124 -4 0 -56 -51 -117 -114z"/>
<path d="M6647 5664 c-3 -11 -9 -44 -12 -74 -20 -162 -82 -399 -150 -575 -177
-458 -465 -850 -849 -1156 l-79 -63 29 -13 c55 -23 279 -72 397 -88 136 -17
432 -20 557 -5 253 32 513 107 738 215 l132 64 0 90 c0 112 -23 290 -56 439
-91 409 -311 799 -622 1106 -66 65 -81 75 -85 60z"/>
<path d="M5012 3488 c-657 -278 -1386 -291 -2031 -35 -82 32 -111 40 -111 30
0 -28 40 -170 80 -289 204 -594 682 -1105 1262 -1348 580 -243 1207 -250 1773
-19 431 175 813 490 1068 878 85 131 199 369 252 528 45 136 68 257 48 257 -6
0 -43 -14 -84 -30 -169 -70 -411 -134 -634 -167 -167 -24 -544 -24 -705 0
-255 39 -499 108 -707 200 l-98 43 -113 -48z"/>
</g>
</svg>
